<?xml version="1.0" encoding="utf-8" ?>
<svg baseProfile="full" height="300" version="1.1" width="300" xmlns="http://www.w3.org/2000/svg" xmlns:ev="http://www.w3.org/2001/xml-events" xmlns:xlink="http://www.w3.org/1999/xlink"><defs /><rect fill="rgb(44,44,44)" height="300" rx="10" ry="10" width="300" x="0" y="0" /><path d="M 0.0,267.3335378486255 L 1.5075376884422065,267.0824323161685 L 3.015075376884413,266.8105804418638 L 4.522613065326642,266.5165661876829 L 6.030150753768848,266.1989054739128 L 7.537688442211055,265.8560455464487 L 9.045226130653262,265.48636461206934 L 10.552763819095468,265.0881717681991 L 12.060301507537696,264.65970725410665 L 13.567839195979904,264.19914305077225 L 15.07537688442211,263.7045838567585 L 16.582914572864315,263.1740684673223 L 18.090452261306524,262.6055715836926 L 19.59798994974875,261.99700607890026 L 21.105527638190956,261.3462257457533 L 22.613065326633162,260.65102855150707 L 24.12060301507537,259.90916042245533 L 25.628140703517577,259.11831958006445 L 27.135678391959807,258.2761614483729 L 28.643216080402013,257.3803041501796 L 30.15075376884422,256.428334607036 L 31.658291457286424,255.41781525524084 L 33.16582914572863,254.34629138691096 L 34.673366834170864,253.2112991217657 L 36.18090452261307,252.01037401153036 L 37.688442211055275,250.74106027483407 L 39.19597989949748,249.400920656173 L 40.703517587939686,247.9875468979377 L 42.21105527638191,246.49857080968854 L 43.71859296482412,244.93167591382962 L 45.226130653266324,243.2846096416 L 46.73366834170854,241.5551960479126 L 48.24120603015074,239.74134900804876 L 49.74874371859297,237.8410858536078 L 51.256281407035175,235.85254139945255 L 52.76381909547738,233.77398230772587 L 54.2713567839196,231.60382172939703 L 55.778894472361806,229.34063415826603 L 57.28643216080401,226.98317042697494 L 58.79396984924623,224.53037276939216 L 60.30150753768844,221.98138986881062 L 61.80904522613066,219.33559180678452 L 63.31658291457286,216.59258482318654 L 64.82412060301506,213.75222579424567 L 66.33165829145729,210.81463633198973 L 67.83919597989949,207.78021640571578 L 69.34673366834171,204.6496573839005 L 70.85427135678391,201.42395439339197 L 72.36180904522614,198.1044178918384 L 73.86934673366834,194.692684349157 L 75.37688442211055,191.19072593445526 L 76.88442211055276,187.60085910623528 L 78.39195979899498,183.92575200595044 L 79.89949748743719,180.16843055807647 L 81.4070351758794,176.33228318381458 L 82.9145728643216,172.42106404036713 L 84.42211055276381,168.43889470342137 L 85.92964824120602,164.39026421702826 L 87.43718592964824,160.28002744245947 L 88.94472361809045,156.1134016458359 L 90.45226130653265,151.89596127331242 L 91.95979899497488,147.63363087233404 L 93.46733668341707,143.33267612789217 L 94.9748743718593,138.99969299375056 L 96.4824120603015,134.6415949102074 L 97.98994974874371,130.26559811203722 L 99.49748743718592,125.87920504273058 L 101.00502512562815,121.49018590393305 L 102.51256281407035,117.1065583819771 L 104.02010050251256,112.73656560650562 L 105.52763819095476,108.3886524092967 L 107.03517587939697,104.07143996440345 L 108.5427135678392,99.79369890351754 L 110.0502512562814,95.56432101293026 L 111.55778894472361,91.3922896304916 L 113.06532663316582,87.28664887244645 L 114.57286432160802,83.2564718308434 L 116.08040201005025,79.31082789226258 L 117.58793969849246,75.4587493377943 L 119.09547738693466,71.70919739241756 L 120.60301507537687,68.07102789909752 L 122.11055276381909,64.55295679894738 L 123.61809045226131,61.1635256036264 L 125.12562814070351,57.911067049692775 L 126.63316582914572,54.80367112685616 L 128.14070351758792,51.849151672931185 L 129.64824120603012,49.05501372775211 L 131.15577889447238,46.42842183635267 L 132.66331658291458,43.9761694883382 L 134.17085427135677,41.70464987558478 L 135.67839195979897,39.61982814421867 L 137.1859296482412,37.72721530928584 L 138.69346733668343,36.03184399166662 L 140.20100502512562,34.53824612668143 L 141.70854271356782,33.25043278254361 L 143.21608040201005,32.17187621442139 L 144.72361809045228,31.305494266476103 L 146.23115577889448,30.653637219936513 L 147.73869346733667,30.218077170177423 L 149.24623115577887,30.0 L 150.7537688442211,30.0 L 152.26130653266333,30.218077170177423 L 153.76884422110552,30.653637219936513 L 155.27638190954772,31.305494266476103 L 156.78391959798995,32.17187621442139 L 158.29145728643215,33.25043278254361 L 159.79899497487438,34.53824612668143 L 161.30653266331657,36.03184399166662 L 162.8140703517588,37.72721530928584 L 164.321608040201,39.61982814421867 L 165.8291457286432,41.70464987558478 L 167.33668341708542,43.9761694883382 L 168.84422110552762,46.42842183635267 L 170.35175879396985,49.055013727752055 L 171.85929648241205,51.84915167293113 L 173.36683417085425,54.80367112685613 L 174.87437185929647,57.911067049692775 L 176.3819095477387,61.1635256036264 L 177.8894472361809,64.55295679894735 L 179.3969849246231,68.07102789909746 L 180.9045226130653,71.70919739241751 L 182.41206030150755,75.4587493377943 L 183.91959798994975,79.31082789226258 L 185.42713567839195,83.25647183084334 L 186.93467336683415,87.28664887244636 L 188.44221105527637,91.39228963049152 L 189.9497487437186,95.56432101293026 L 191.4572864321608,99.79369890351754 L 192.964824120603,104.07143996440342 L 194.47236180904522,108.38865240929667 L 195.97989949748742,112.73656560650556 L 197.48743718592965,117.1065583819771 L 198.99497487437185,121.49018590393305 L 200.50251256281405,125.87920504273055 L 202.0100502512563,130.26559811203722 L 203.51758793969847,134.64159491020735 L 205.0251256281407,138.99969299375056 L 206.5326633165829,143.33267612789209 L 208.04020100502512,147.63363087233398 L 209.54773869346735,151.89596127331242 L 211.05527638190952,156.1134016458358 L 212.56281407035175,160.28002744245947 L 214.07035175879395,164.39026421702818 L 215.57788944723617,168.43889470342134 L 217.0854271356784,172.42106404036713 L 218.59296482412057,176.33228318381452 L 220.1005025125628,180.16843055807647 L 221.608040201005,183.92575200595036 L 223.11557788944722,187.60085910623525 L 224.62311557788945,191.19072593445526 L 226.13065326633165,194.69268434915693 L 227.63819095477388,198.1044178918384 L 229.14572864321605,201.42395439339185 L 230.65326633165827,204.6496573839005 L 232.1608040201005,207.78021640571578 L 233.6683417085427,210.81463633198967 L 235.17587939698493,213.75222579424567 L 236.6834170854271,216.59258482318648 L 238.19095477386932,219.33559180678446 L 239.69849246231155,221.98138986881062 L 241.20603015075375,224.53037276939213 L 242.71356783919597,226.9831704269749 L 244.22110552763817,229.34063415826597 L 245.7286432160804,231.603821729397 L 247.23618090452263,233.77398230772587 L 248.7437185929648,235.85254139945255 L 250.25125628140702,237.8410858536078 L 251.75879396984922,239.7413490080487 L 253.26633165829145,241.55519604791257 L 254.77386934673368,243.2846096416 L 256.28140703517585,244.9316759138296 L 257.7889447236181,246.49857080968854 L 259.29648241206024,247.98754689793765 L 260.8040201005025,249.400920656173 L 262.31155778894475,250.74106027483407 L 263.8190954773869,252.01037401153036 L 265.32663316582915,253.2112991217657 L 266.83417085427135,254.34629138691093 L 268.34170854271355,255.41781525524084 L 269.8492462311558,256.428334607036 L 271.35678391959794,257.3803041501796 L 272.8643216080402,258.2761614483729 L 274.3718592964824,259.1183195800644 L 275.8793969849246,259.90916042245533 L 277.38693467336685,260.65102855150707 L 278.894472361809,261.34622574575326 L 280.40201005025125,261.99700607890026 L 281.90954773869345,262.6055715836926 L 283.41708542713565,263.1740684673223 L 284.9246231155779,263.7045838567585 L 286.4321608040201,264.1991430507722 L 287.9396984924623,264.65970725410665 L 289.44723618090455,265.0881717681991 L 290.9547738693467,265.48636461206934 L 292.46231155778895,265.8560455464487 L 293.96984924623115,266.1989054739128 L 295.47738693467335,266.5165661876829 L 296.9849246231156,266.8105804418638 L 298.49246231155774,267.0824323161685 L 300.0,267.3335378486255" fill="none" stroke="white" stroke-width="16" /></svg>