<svg width="592" height="592" viewBox="0 0 592 592" fill="none" xmlns="http://www.w3.org/2000/svg">
<path d="M88 88L504 88" stroke="white" stroke-width="96" stroke-linecap="square"/>
<path d="M296 236H424" stroke="white" stroke-width="96" stroke-linecap="square"/>
<path d="M296 88V504" stroke="white" stroke-width="96" stroke-linecap="square"/>
<path d="M88 88L504 88" stroke="black" stroke-width="32" stroke-linecap="square"/>
<path d="M296 236H424" stroke="black" stroke-width="32" stroke-linecap="square"/>
<path d="M296 88V504" stroke="black" stroke-width="32" stroke-linecap="square"/>
<rect x="40" y="4" width="30.4667" height="30" rx="3" fill="black"/>
<rect x="40.5" y="4.5" width="29.4667" height="29" rx="2.5" stroke="white" stroke-opacity="0.0980392"/>
<path d="M49.3281 22.1094C48.8698 22.1094 48.457 22.0182 48.0898 21.8359C47.7227 21.6536 47.4284 21.4036 47.207 21.0859C46.9857 20.7682 46.8646 20.4062 46.8438 20H47.7813C47.8177 20.362 47.9818 20.6615 48.2734 20.8984C48.5677 21.1328 48.9193 21.25 49.3281 21.25C49.6563 21.25 49.9479 21.1732 50.2031 21.0195C50.4609 20.8659 50.6628 20.6549 50.8086 20.3867C50.957 20.1159 51.0313 19.8099 51.0313 19.4687C51.0313 19.1198 50.9544 18.8086 50.8008 18.5352C50.6497 18.2591 50.4414 18.0417 50.1758 17.8828C49.9102 17.724 49.6068 17.6432 49.2656 17.6406C49.0208 17.638 48.7695 17.6758 48.5117 17.7539C48.2539 17.8294 48.0417 17.9271 47.875 18.0469L46.9688 17.9375L47.4531 14H51.6094V14.8594H48.2656L47.9844 17.2187H48.0313C48.1953 17.0885 48.401 16.9805 48.6484 16.8945C48.8958 16.8086 49.1536 16.7656 49.4219 16.7656C49.9115 16.7656 50.3477 16.8828 50.7305 17.1172C51.1159 17.349 51.418 17.6667 51.6367 18.0703C51.8581 18.474 51.9687 18.9349 51.9687 19.4531C51.9687 19.9635 51.8542 20.4193 51.625 20.8203C51.3984 21.2187 51.0859 21.5339 50.6875 21.7656C50.2891 21.9948 49.8359 22.1094 49.3281 22.1094ZM56.333 14V22H55.3643V15.0156H55.3174L53.3643 16.3125V15.3281L55.3643 14H56.333ZM58.6338 22V21.2969L61.2744 18.4062C61.5843 18.0677 61.8395 17.7734 62.04 17.5234C62.2406 17.2708 62.389 17.0339 62.4854 16.8125C62.5843 16.5885 62.6338 16.3542 62.6338 16.1094C62.6338 15.8281 62.5661 15.5846 62.4307 15.3789C62.2979 15.1732 62.1156 15.0143 61.8838 14.9023C61.652 14.7904 61.3916 14.7344 61.1025 14.7344C60.7952 14.7344 60.527 14.7982 60.2979 14.9258C60.0713 15.0508 59.8955 15.2266 59.7705 15.4531C59.6481 15.6797 59.5869 15.9453 59.5869 16.25H58.665C58.665 15.7812 58.7731 15.3698 58.9893 15.0156C59.2054 14.6615 59.4997 14.3854 59.8721 14.1875C60.2471 13.9896 60.6676 13.8906 61.1338 13.8906C61.6025 13.8906 62.0179 13.9896 62.3799 14.1875C62.7419 14.3854 63.0257 14.6523 63.2314 14.9883C63.4372 15.3242 63.54 15.6979 63.54 16.1094C63.54 16.4036 63.4867 16.6914 63.3799 16.9727C63.2757 17.2513 63.0934 17.5625 62.833 17.9062C62.5752 18.2474 62.2171 18.6641 61.7588 19.1562L59.9619 21.0781V21.1406H63.6807V22H58.6338Z" fill="white"/>
</svg>
