<svg width="592" height="592" viewBox="0 0 592 592" fill="none" xmlns="http://www.w3.org/2000/svg">
<path d="M520 72H72V152H254V216V280V520H334V400V288H448V208H334V152H520V72Z" stroke="white" stroke-width="64" stroke-linejoin="bevel"/>
<g filter="url(#filter0_i_0_1)">
<path d="M524 76H76V156H258V220V284V524H338V404V292H452V212H338V156H524V76Z" stroke="black" stroke-opacity="0.2" stroke-width="16" stroke-linejoin="bevel" stroke-dasharray="48 6"/>
</g>
<g filter="url(#filter1_i_0_1)">
<path d="M516 68H68V148H250V212V276V516H330V396V284H444V204H330V148H516V68Z" stroke="black" stroke-width="16" stroke-linejoin="bevel" stroke-dasharray="48 6"/>
</g>
<rect x="40" y="4" width="49.9" height="30" rx="3" fill="black"/>
<rect x="40.5" y="4.5" width="48.9" height="29" rx="2.5" stroke="white" stroke-opacity="0.0980392"/>
<path d="M49.5156 16V16.7812H46.2813V16H49.5156ZM47.25 22V15.1719C47.25 14.8281 47.3307 14.5417 47.4922 14.3125C47.6536 14.0833 47.8633 13.9115 48.1211 13.7969C48.3789 13.6823 48.651 13.625 48.9375 13.625C49.1641 13.625 49.349 13.6432 49.4922 13.6797C49.6354 13.7161 49.7422 13.75 49.8125 13.7812L49.5469 14.5781C49.5 14.5625 49.4349 14.543 49.3516 14.5195C49.2708 14.4961 49.1641 14.4844 49.0313 14.4844C48.7266 14.4844 48.5065 14.5612 48.3711 14.7148C48.2383 14.8685 48.1719 15.0937 48.1719 15.3906V22H47.25ZM52.4014 22.1406C52.0212 22.1406 51.6761 22.069 51.3662 21.9258C51.0563 21.7799 50.8102 21.5703 50.6279 21.2969C50.4456 21.0208 50.3545 20.6875 50.3545 20.2969C50.3545 19.9531 50.4222 19.6745 50.5576 19.4609C50.693 19.2448 50.874 19.0755 51.1006 18.9531C51.3271 18.8307 51.5771 18.7396 51.8506 18.6797C52.1266 18.6172 52.404 18.5677 52.6826 18.5313C53.0472 18.4844 53.3428 18.4492 53.5693 18.4258C53.7985 18.3997 53.9652 18.3568 54.0693 18.2969C54.1761 18.237 54.2295 18.1328 54.2295 17.9844V17.9531C54.2295 17.5677 54.124 17.2682 53.9131 17.0547C53.7048 16.8411 53.3883 16.7344 52.9639 16.7344C52.5238 16.7344 52.1787 16.8307 51.9287 17.0234C51.6787 17.2161 51.5029 17.4219 51.4014 17.6406L50.5264 17.3281C50.6826 16.9635 50.891 16.6797 51.1514 16.4766C51.4144 16.2708 51.7008 16.1276 52.0107 16.0469C52.3232 15.9635 52.6305 15.9219 52.9326 15.9219C53.1253 15.9219 53.3467 15.9453 53.5967 15.9922C53.8493 16.0365 54.0928 16.1289 54.3271 16.2695C54.5641 16.4102 54.7607 16.6224 54.917 16.9062C55.0732 17.1901 55.1514 17.5703 55.1514 18.0469V22H54.2295V21.1875H54.1826C54.1201 21.3177 54.016 21.457 53.8701 21.6055C53.7243 21.7539 53.5303 21.8802 53.2881 21.9844C53.0459 22.0885 52.7503 22.1406 52.4014 22.1406ZM52.542 21.3125C52.9066 21.3125 53.2139 21.2409 53.4639 21.0977C53.7165 20.9544 53.9066 20.7695 54.0342 20.543C54.1644 20.3164 54.2295 20.0781 54.2295 19.8281V18.9844C54.1904 19.0312 54.1045 19.0742 53.9717 19.1133C53.8415 19.1497 53.6904 19.1823 53.5186 19.2109C53.3493 19.237 53.1839 19.2604 53.0225 19.2812C52.8636 19.2995 52.7347 19.3151 52.6357 19.3281C52.3962 19.3594 52.1722 19.4102 51.9639 19.4805C51.7581 19.5482 51.5915 19.651 51.4639 19.7891C51.3389 19.9245 51.2764 20.1094 51.2764 20.3437C51.2764 20.6641 51.3949 20.9062 51.6318 21.0703C51.8714 21.2318 52.1748 21.3125 52.542 21.3125ZM61.5254 16L59.3066 22H58.3691L56.1504 16H57.1504L58.8066 20.7812H58.8691L60.5254 16H61.5254ZM62.7422 22V16H63.6641V22H62.7422ZM63.2109 15C63.0313 15 62.8763 14.9388 62.7461 14.8164C62.6185 14.694 62.5547 14.5469 62.5547 14.375C62.5547 14.2031 62.6185 14.056 62.7461 13.9336C62.8763 13.8112 63.0313 13.75 63.2109 13.75C63.3906 13.75 63.5443 13.8112 63.6719 13.9336C63.8021 14.056 63.8672 14.2031 63.8672 14.375C63.8672 14.5469 63.8021 14.694 63.6719 14.8164C63.5443 14.9388 63.3906 15 63.2109 15ZM67.79 22.125C67.2275 22.125 66.7432 21.9922 66.3369 21.7266C65.9307 21.4609 65.6182 21.0951 65.3994 20.6289C65.1807 20.1628 65.0713 19.6302 65.0713 19.0312C65.0713 18.4219 65.1833 17.8841 65.4072 17.418C65.6338 16.9492 65.9489 16.5833 66.3525 16.3203C66.7588 16.0547 67.2327 15.9219 67.7744 15.9219C68.1963 15.9219 68.5765 16 68.915 16.1562C69.2536 16.3125 69.5309 16.5312 69.7471 16.8125C69.9632 17.0937 70.0973 17.4219 70.1494 17.7969H69.2275C69.1572 17.5234 69.001 17.2812 68.7588 17.0703C68.5192 16.8568 68.1963 16.75 67.79 16.75C67.4307 16.75 67.1156 16.8437 66.8447 17.0312C66.5765 17.2161 66.3669 17.4779 66.2158 17.8164C66.0674 18.1523 65.9932 18.5469 65.9932 19C65.9932 19.4635 66.0661 19.8672 66.2119 20.2109C66.3604 20.5547 66.5687 20.8216 66.8369 21.0117C67.1077 21.2018 67.4255 21.2969 67.79 21.2969C68.0296 21.2969 68.2471 21.2552 68.4424 21.1719C68.6377 21.0885 68.8031 20.9688 68.9385 20.8125C69.0739 20.6562 69.1702 20.4687 69.2275 20.25H70.1494C70.0973 20.6042 69.9684 20.9232 69.7627 21.207C69.5596 21.4883 69.29 21.7122 68.9541 21.8789C68.6208 22.043 68.2327 22.125 67.79 22.125ZM73.9346 22.125C73.3929 22.125 72.9176 21.9961 72.5088 21.7383C72.1025 21.4805 71.7848 21.1198 71.5557 20.6562C71.3291 20.1927 71.2158 19.651 71.2158 19.0312C71.2158 18.4062 71.3291 17.8607 71.5557 17.3945C71.7848 16.9284 72.1025 16.5664 72.5088 16.3086C72.9176 16.0508 73.3929 15.9219 73.9346 15.9219C74.4762 15.9219 74.9502 16.0508 75.3564 16.3086C75.7653 16.5664 76.083 16.9284 76.3096 17.3945C76.5387 17.8607 76.6533 18.4062 76.6533 19.0312C76.6533 19.651 76.5387 20.1927 76.3096 20.6562C76.083 21.1198 75.7653 21.4805 75.3564 21.7383C74.9502 21.9961 74.4762 22.125 73.9346 22.125ZM73.9346 21.2969C74.346 21.2969 74.6846 21.1914 74.9502 20.9805C75.2158 20.7695 75.4124 20.4922 75.54 20.1484C75.6676 19.8047 75.7314 19.4323 75.7314 19.0312C75.7314 18.6302 75.6676 18.2565 75.54 17.9102C75.4124 17.5638 75.2158 17.2839 74.9502 17.0703C74.6846 16.8568 74.346 16.75 73.9346 16.75C73.5231 16.75 73.1846 16.8568 72.9189 17.0703C72.6533 17.2839 72.4567 17.5638 72.3291 17.9102C72.2015 18.2565 72.1377 18.6302 72.1377 19.0312C72.1377 19.4323 72.2015 19.8047 72.3291 20.1484C72.4567 20.4922 72.6533 20.7695 72.9189 20.9805C73.1846 21.1914 73.5231 21.2969 73.9346 21.2969ZM78.0449 22V21.2969L80.6855 18.4062C80.9954 18.0677 81.2507 17.7734 81.4512 17.5234C81.6517 17.2708 81.8001 17.0339 81.8965 16.8125C81.9954 16.5885 82.0449 16.3542 82.0449 16.1094C82.0449 15.8281 81.9772 15.5846 81.8418 15.3789C81.709 15.1732 81.5267 15.0143 81.2949 14.9023C81.0632 14.7904 80.8027 14.7344 80.5137 14.7344C80.2064 14.7344 79.9382 14.7982 79.709 14.9258C79.4824 15.0508 79.3066 15.2266 79.1816 15.4531C79.0592 15.6797 78.998 15.9453 78.998 16.25H78.0762C78.0762 15.7812 78.1842 15.3698 78.4004 15.0156C78.6165 14.6615 78.9108 14.3854 79.2832 14.1875C79.6582 13.9896 80.0788 13.8906 80.5449 13.8906C81.0137 13.8906 81.429 13.9896 81.791 14.1875C82.153 14.3854 82.4368 14.6523 82.6426 14.9883C82.8483 15.3242 82.9512 15.6979 82.9512 16.1094C82.9512 16.4036 82.8978 16.6914 82.791 16.9727C82.6868 17.2513 82.5046 17.5625 82.2441 17.9062C81.9863 18.2474 81.6283 18.6641 81.1699 19.1562L79.373 21.0781V21.1406H83.0918V22H78.0449Z" fill="white"/>
<defs>
<filter id="filter0_i_0_1" x="68" y="68" width="464" height="468" filterUnits="userSpaceOnUse" color-interpolation-filters="sRGB">
<feFlood flood-opacity="0" result="BackgroundImageFix"/>
<feBlend mode="normal" in="SourceGraphic" in2="BackgroundImageFix" result="shape"/>
<feColorMatrix in="SourceAlpha" type="matrix" values="0 0 0 0 0 0 0 0 0 0 0 0 0 0 0 0 0 0 127 0" result="hardAlpha"/>
<feOffset dy="4"/>
<feGaussianBlur stdDeviation="2"/>
<feComposite in2="hardAlpha" operator="arithmetic" k2="-1" k3="1"/>
<feColorMatrix type="matrix" values="0 0 0 0 0 0 0 0 0 0 0 0 0 0 0 0 0 0 0.25 0"/>
<feBlend mode="normal" in2="shape" result="effect1_innerShadow_0_1"/>
</filter>
<filter id="filter1_i_0_1" x="60" y="60" width="464" height="468" filterUnits="userSpaceOnUse" color-interpolation-filters="sRGB">
<feFlood flood-opacity="0" result="BackgroundImageFix"/>
<feBlend mode="normal" in="SourceGraphic" in2="BackgroundImageFix" result="shape"/>
<feColorMatrix in="SourceAlpha" type="matrix" values="0 0 0 0 0 0 0 0 0 0 0 0 0 0 0 0 0 0 127 0" result="hardAlpha"/>
<feOffset dy="4"/>
<feGaussianBlur stdDeviation="2"/>
<feComposite in2="hardAlpha" operator="arithmetic" k2="-1" k3="1"/>
<feColorMatrix type="matrix" values="0 0 0 0 0 0 0 0 0 0 0 0 0 0 0 0 0 0 0.25 0"/>
<feBlend mode="normal" in2="shape" result="effect1_innerShadow_0_1"/>
</filter>
</defs>
</svg>
